<?xml version="1.0" encoding="UTF-8" standalone="no"?>
<svg
   xmlns:dc="http://purl.org/dc/elements/1.1/"
        xmlns:cc="http://creativecommons.org/ns#"
   xmlns:rdf="http://www.w3.org/1999/02/22-rdf-syntax-ns#"
   xmlns:svg="http://www.w3.org/2000/svg"
   xmlns="http://www.w3.org/2000/svg"
   width="1404px"
   height="1872px"
   viewBox="0 0 1404 1872"
   style="background-color:white"
   version="1.1"
   id="svg8">
  <defs
     id="defs2" />
  <metadata
     id="metadata5">
    <rdf:RDF>
      <cc:Work
         rdf:about="">
        <dc:format>image/svg+xml</dc:format>
        <dc:type
           rdf:resource="http://purl.org/dc/dcmitype/StillImage" />
        <dc:title></dc:title>
      </cc:Work>
    </rdf:RDF>
  </metadata>
  <g
     id="layer1">
<path style="stroke-dasharray:none;vector-effect:none;stroke:#000000;stroke-opacity:1;fill:none;stroke-linejoin:miter;stroke-dashoffset:0;stroke-linecap:round;stroke-width:5.00;opacity:1;stroke-miterlimit:4;fill-opacity:0" d="M 100,100 200,100" /><path style="stroke-dasharray:none;vector-effect:none;stroke:#000000;stroke-opacity:1;fill:none;stroke-linejoin:miter;stroke-dashoffset:0;stroke-linecap:round;stroke-width:5.00;opacity:1;stroke-miterlimit:4;fill-opacity:0" d="M 100,130 100,190 110,200 130,180 130,130" /><path style="stroke-dasharray:none;vector-effect:none;stroke:#000000;stroke-opacity:1;fill:none;stroke-linejoin:miter;stroke-dashoffset:0;stroke-linecap:round;stroke-width:5.00;opacity:1;stroke-miterlimit:4;fill-opacity:0" d="M 140,180 170,180 170,170 160,160 150,160 140,170 140,190 150,200 160,200 170,190" /><path style="stroke-dasharray:none;vector-effect:none;stroke:#000000;stroke-opacity:1;fill:none;stroke-linejoin:miter;stroke-dashoffset:0;stroke-linecap:round;stroke-width:5.00;opacity:1;stroke-miterlimit:4;fill-opacity:0" d="M 210,170 200,160 190,160 180,170 180,190 190,200 200,200 210,190" /><path style="stroke-dasharray:none;vector-effect:none;stroke:#000000;stroke-opacity:1;fill:none;stroke-linejoin:miter;stroke-dashoffset:0;stroke-linecap:round;stroke-width:5.00;opacity:1;stroke-miterlimit:4;fill-opacity:0" d="M 230,150 230,190 240,200 250,190" /><path style="stroke-dasharray:none;vector-effect:none;stroke:#000000;stroke-opacity:1;fill:none;stroke-linejoin:miter;stroke-dashoffset:0;stroke-linecap:round;stroke-width:5.00;opacity:1;stroke-miterlimit:4;fill-opacity:0" d="M 220,160 250,160" /><path style="stroke-dasharray:none;vector-effect:none;stroke:#000000;stroke-opacity:1;fill:none;stroke-linejoin:miter;stroke-dashoffset:0;stroke-linecap:round;stroke-width:5.00;opacity:1;stroke-miterlimit:4;fill-opacity:0" d="M 290,170 280,160 270,160 260,170 260,190 270,200 280,200 290,190 290,170" /><path style="stroke-dasharray:none;vector-effect:none;stroke:#000000;stroke-opacity:1;fill:none;stroke-linejoin:miter;stroke-dashoffset:0;stroke-linecap:round;stroke-width:5.00;opacity:1;stroke-miterlimit:4;fill-opacity:0" d="M 300,160 300,200" /><path style="stroke-dasharray:none;vector-effect:none;stroke:#000000;stroke-opacity:1;fill:none;stroke-linejoin:miter;stroke-dashoffset:0;stroke-linecap:round;stroke-width:5.00;opacity:1;stroke-miterlimit:4;fill-opacity:0" d="M 300,170 310,160 320,160 330,170" /><path style="stroke-dasharray:none;vector-effect:none;stroke:#000000;stroke-opacity:1;fill:none;stroke-linejoin:miter;stroke-dashoffset:0;stroke-linecap:round;stroke-width:5.00;opacity:1;stroke-miterlimit:4;fill-opacity:0" d="M 380,130 380,200" /><path style="stroke-dasharray:none;vector-effect:none;stroke:#000000;stroke-opacity:1;fill:none;stroke-linejoin:miter;stroke-dashoffset:0;stroke-linecap:round;stroke-width:5.00;opacity:1;stroke-miterlimit:4;fill-opacity:0" d="M 410,130 380,130" /><path style="stroke-dasharray:none;vector-effect:none;stroke:#000000;stroke-opacity:1;fill:none;stroke-linejoin:miter;stroke-dashoffset:0;stroke-linecap:round;stroke-width:5.00;opacity:1;stroke-miterlimit:4;fill-opacity:0" d="M 400,160 380,160" /><path style="stroke-dasharray:none;vector-effect:none;stroke:#000000;stroke-opacity:1;fill:none;stroke-linejoin:miter;stroke-dashoffset:0;stroke-linecap:round;stroke-width:5.00;opacity:1;stroke-miterlimit:4;fill-opacity:0" d="M 450,170 440,160 430,160 420,170 420,190 430,200 440,200 450,190 450,170" /><path style="stroke-dasharray:none;vector-effect:none;stroke:#000000;stroke-opacity:1;fill:none;stroke-linejoin:miter;stroke-dashoffset:0;stroke-linecap:round;stroke-width:5.00;opacity:1;stroke-miterlimit:4;fill-opacity:0" d="M 460,160 460,200" /><path style="stroke-dasharray:none;vector-effect:none;stroke:#000000;stroke-opacity:1;fill:none;stroke-linejoin:miter;stroke-dashoffset:0;stroke-linecap:round;stroke-width:5.00;opacity:1;stroke-miterlimit:4;fill-opacity:0" d="M 460,170 470,160 480,160 490,170 490,200" /><path style="stroke-dasharray:none;vector-effect:none;stroke:#000000;stroke-opacity:1;fill:none;stroke-linejoin:miter;stroke-dashoffset:0;stroke-linecap:round;stroke-width:5.00;opacity:1;stroke-miterlimit:4;fill-opacity:0" d="M 510,150 510,190 520,200 530,190" /><path style="stroke-dasharray:none;vector-effect:none;stroke:#000000;stroke-opacity:1;fill:none;stroke-linejoin:miter;stroke-dashoffset:0;stroke-linecap:round;stroke-width:5.00;opacity:1;stroke-miterlimit:4;fill-opacity:0" d="M 500,160 530,160" /><path style="stroke-dasharray:none;vector-effect:none;stroke:#000000;stroke-opacity:1;fill:none;stroke-linejoin:miter;stroke-dashoffset:0;stroke-linecap:round;stroke-width:5.00;opacity:1;stroke-miterlimit:4;fill-opacity:0" d="M 580,130 580,200" /><path style="stroke-dasharray:none;vector-effect:none;stroke:#000000;stroke-opacity:1;fill:none;stroke-linejoin:miter;stroke-dashoffset:0;stroke-linecap:round;stroke-width:5.00;opacity:1;stroke-miterlimit:4;fill-opacity:0" d="M 610,130 580,130" /><path style="stroke-dasharray:none;vector-effect:none;stroke:#000000;stroke-opacity:1;fill:none;stroke-linejoin:miter;stroke-dashoffset:0;stroke-linecap:round;stroke-width:5.00;opacity:1;stroke-miterlimit:4;fill-opacity:0" d="M 600,160 580,160" /><path style="stroke-dasharray:none;vector-effect:none;stroke:#000000;stroke-opacity:1;fill:none;stroke-linejoin:miter;stroke-dashoffset:0;stroke-linecap:round;stroke-width:5.00;opacity:1;stroke-miterlimit:4;fill-opacity:0" d="M 610,200 580,200" /><path style="stroke-dasharray:none;vector-effect:none;stroke:#000000;stroke-opacity:1;fill:none;stroke-linejoin:miter;stroke-dashoffset:0;stroke-linecap:round;stroke-width:5.00;opacity:1;stroke-miterlimit:4;fill-opacity:0" d="M 620,160 620,170 630,180 640,180 650,190 650,200" /><path style="stroke-dasharray:none;vector-effect:none;stroke:#000000;stroke-opacity:1;fill:none;stroke-linejoin:miter;stroke-dashoffset:0;stroke-linecap:round;stroke-width:5.00;opacity:1;stroke-miterlimit:4;fill-opacity:0" d="M 650,160 650,170 640,180 630,180 620,190 620,200" /><path style="stroke-dasharray:none;vector-effect:none;stroke:#000000;stroke-opacity:1;fill:none;stroke-linejoin:miter;stroke-dashoffset:0;stroke-linecap:round;stroke-width:5.00;opacity:1;stroke-miterlimit:4;fill-opacity:0" d="M 690,170 680,160 670,160 660,170 660,190 670,200 680,200 690,190 690,170" /><path style="stroke-dasharray:none;vector-effect:none;stroke:#000000;stroke-opacity:1;fill:none;stroke-linejoin:miter;stroke-dashoffset:0;stroke-linecap:round;stroke-width:5.00;opacity:1;stroke-miterlimit:4;fill-opacity:0" d="M 690,160 690,200" /><path style="stroke-dasharray:none;vector-effect:none;stroke:#000000;stroke-opacity:1;fill:none;stroke-linejoin:miter;stroke-dashoffset:0;stroke-linecap:round;stroke-width:5.00;opacity:1;stroke-miterlimit:4;fill-opacity:0" d="M 700,200" /><path style="stroke-dasharray:none;vector-effect:none;stroke:#000000;stroke-opacity:1;fill:none;stroke-linejoin:miter;stroke-dashoffset:0;stroke-linecap:round;stroke-width:5.00;opacity:1;stroke-miterlimit:4;fill-opacity:0" d="M 700,160 700,200" /><path style="stroke-dasharray:none;vector-effect:none;stroke:#000000;stroke-opacity:1;fill:none;stroke-linejoin:miter;stroke-dashoffset:0;stroke-linecap:round;stroke-width:5.00;opacity:1;stroke-miterlimit:4;fill-opacity:0" d="M 700,160 710,160 710,200" /><path style="stroke-dasharray:none;vector-effect:none;stroke:#000000;stroke-opacity:1;fill:none;stroke-linejoin:miter;stroke-dashoffset:0;stroke-linecap:round;stroke-width:5.00;opacity:1;stroke-miterlimit:4;fill-opacity:0" d="M 710,160 720,160 730,170 730,200" /><path style="stroke-dasharray:none;vector-effect:none;stroke:#000000;stroke-opacity:1;fill:none;stroke-linejoin:miter;stroke-dashoffset:0;stroke-linecap:round;stroke-width:5.00;opacity:1;stroke-miterlimit:4;fill-opacity:0" d="M 740,160 740,230" /><path style="stroke-dasharray:none;vector-effect:none;stroke:#000000;stroke-opacity:1;fill:none;stroke-linejoin:miter;stroke-dashoffset:0;stroke-linecap:round;stroke-width:5.00;opacity:1;stroke-miterlimit:4;fill-opacity:0" d="M 740,170 740,190 750,200 760,200 770,190 770,170 760,160 750,160 740,170" /><path style="stroke-dasharray:none;vector-effect:none;stroke:#000000;stroke-opacity:1;fill:none;stroke-linejoin:miter;stroke-dashoffset:0;stroke-linecap:round;stroke-width:5.00;opacity:1;stroke-miterlimit:4;fill-opacity:0" d="M 790,130 790,200 800,200" /><path style="stroke-dasharray:none;vector-effect:none;stroke:#000000;stroke-opacity:1;fill:none;stroke-linejoin:miter;stroke-dashoffset:0;stroke-linecap:round;stroke-width:5.00;opacity:1;stroke-miterlimit:4;fill-opacity:0" d="M 820,180 850,180 850,170 840,160 830,160 820,170 820,190 830,200 840,200 850,190" /><path style="stroke-dasharray:none;vector-effect:none;stroke:#000000;stroke-opacity:1;fill:none;stroke-linejoin:miter;stroke-dashoffset:0;stroke-linecap:round;stroke-width:5.00;opacity:1;stroke-miterlimit:4;fill-opacity:0" d="M 100,500 100,440 110,430 120,430 130,440 130,500" /><path style="stroke-dasharray:none;vector-effect:none;stroke:#000000;stroke-opacity:1;fill:none;stroke-linejoin:miter;stroke-dashoffset:0;stroke-linecap:round;stroke-width:5.00;opacity:1;stroke-miterlimit:4;fill-opacity:0" d="M 100,460 130,460" /><path style="stroke-dasharray:none;vector-effect:none;stroke:#000000;stroke-opacity:1;fill:none;stroke-linejoin:miter;stroke-dashoffset:0;stroke-linecap:round;stroke-width:5.00;opacity:1;stroke-miterlimit:4;fill-opacity:0" d="M 140,500 140,430 160,430 170,440 170,450 160,460 140,460 160,460 170,470 170,490 160,500 140,500" /><path style="stroke-dasharray:none;vector-effect:none;stroke:#000000;stroke-opacity:1;fill:none;stroke-linejoin:miter;stroke-dashoffset:0;stroke-linecap:round;stroke-width:5.00;opacity:1;stroke-miterlimit:4;fill-opacity:0" d="M 210,450 210,440 200,430 190,430 180,440 180,490 190,500 200,500 210,490 210,480" /><path style="stroke-dasharray:none;vector-effect:none;stroke:#000000;stroke-opacity:1;fill:none;stroke-linejoin:miter;stroke-dashoffset:0;stroke-linecap:round;stroke-width:5.00;opacity:1;stroke-miterlimit:4;fill-opacity:0" d="M 220,430 220,500" /><path style="stroke-dasharray:none;vector-effect:none;stroke:#000000;stroke-opacity:1;fill:none;stroke-linejoin:miter;stroke-dashoffset:0;stroke-linecap:round;stroke-width:5.00;opacity:1;stroke-miterlimit:4;fill-opacity:0" d="M 220,430 240,430 250,440 250,490 240,500 220,500" /><path style="stroke-dasharray:none;vector-effect:none;stroke:#000000;stroke-opacity:1;fill:none;stroke-linejoin:miter;stroke-dashoffset:0;stroke-linecap:round;stroke-width:5.00;opacity:1;stroke-miterlimit:4;fill-opacity:0" d="M 260,430 260,500" /><path style="stroke-dasharray:none;vector-effect:none;stroke:#000000;stroke-opacity:1;fill:none;stroke-linejoin:miter;stroke-dashoffset:0;stroke-linecap:round;stroke-width:5.00;opacity:1;stroke-miterlimit:4;fill-opacity:0" d="M 290,430 260,430" /><path style="stroke-dasharray:none;vector-effect:none;stroke:#000000;stroke-opacity:1;fill:none;stroke-linejoin:miter;stroke-dashoffset:0;stroke-linecap:round;stroke-width:5.00;opacity:1;stroke-miterlimit:4;fill-opacity:0" d="M 280,460 260,460" /><path style="stroke-dasharray:none;vector-effect:none;stroke:#000000;stroke-opacity:1;fill:none;stroke-linejoin:miter;stroke-dashoffset:0;stroke-linecap:round;stroke-width:5.00;opacity:1;stroke-miterlimit:4;fill-opacity:0" d="M 290,500 260,500" /><path style="stroke-dasharray:none;vector-effect:none;stroke:#000000;stroke-opacity:1;fill:none;stroke-linejoin:miter;stroke-dashoffset:0;stroke-linecap:round;stroke-width:5.00;opacity:1;stroke-miterlimit:4;fill-opacity:0" d="M 300,430 300,500" /><path style="stroke-dasharray:none;vector-effect:none;stroke:#000000;stroke-opacity:1;fill:none;stroke-linejoin:miter;stroke-dashoffset:0;stroke-linecap:round;stroke-width:5.00;opacity:1;stroke-miterlimit:4;fill-opacity:0" d="M 330,430 300,430" /><path style="stroke-dasharray:none;vector-effect:none;stroke:#000000;stroke-opacity:1;fill:none;stroke-linejoin:miter;stroke-dashoffset:0;stroke-linecap:round;stroke-width:5.00;opacity:1;stroke-miterlimit:4;fill-opacity:0" d="M 320,460 300,460" /><path style="stroke-dasharray:none;vector-effect:none;stroke:#000000;stroke-opacity:1;fill:none;stroke-linejoin:miter;stroke-dashoffset:0;stroke-linecap:round;stroke-width:5.00;opacity:1;stroke-miterlimit:4;fill-opacity:0" d="M 370,440 360,430 350,430 340,440 340,490 350,500 360,500 370,490 370,460" /><path style="stroke-dasharray:none;vector-effect:none;stroke:#000000;stroke-opacity:1;fill:none;stroke-linejoin:miter;stroke-dashoffset:0;stroke-linecap:round;stroke-width:5.00;opacity:1;stroke-miterlimit:4;fill-opacity:0" d="M 360,460 370,460" /><path style="stroke-dasharray:none;vector-effect:none;stroke:#000000;stroke-opacity:1;fill:none;stroke-linejoin:miter;stroke-dashoffset:0;stroke-linecap:round;stroke-width:5.00;opacity:1;stroke-miterlimit:4;fill-opacity:0" d="M 380,430 380,500" /><path style="stroke-dasharray:none;vector-effect:none;stroke:#000000;stroke-opacity:1;fill:none;stroke-linejoin:miter;stroke-dashoffset:0;stroke-linecap:round;stroke-width:5.00;opacity:1;stroke-miterlimit:4;fill-opacity:0" d="M 410,430 410,500" /><path style="stroke-dasharray:none;vector-effect:none;stroke:#000000;stroke-opacity:1;fill:none;stroke-linejoin:miter;stroke-dashoffset:0;stroke-linecap:round;stroke-width:5.00;opacity:1;stroke-miterlimit:4;fill-opacity:0" d="M 410,460 380,460" /><path style="stroke-dasharray:none;vector-effect:none;stroke:#000000;stroke-opacity:1;fill:none;stroke-linejoin:miter;stroke-dashoffset:0;stroke-linecap:round;stroke-width:5.00;opacity:1;stroke-miterlimit:4;fill-opacity:0" d="M 440,430 440,500" /><path style="stroke-dasharray:none;vector-effect:none;stroke:#000000;stroke-opacity:1;fill:none;stroke-linejoin:miter;stroke-dashoffset:0;stroke-linecap:round;stroke-width:5.00;opacity:1;stroke-miterlimit:4;fill-opacity:0" d="M 450,430 420,430" /><path style="stroke-dasharray:none;vector-effect:none;stroke:#000000;stroke-opacity:1;fill:none;stroke-linejoin:miter;stroke-dashoffset:0;stroke-linecap:round;stroke-width:5.00;opacity:1;stroke-miterlimit:4;fill-opacity:0" d="M 450,500 420,500" /><path style="stroke-dasharray:none;vector-effect:none;stroke:#000000;stroke-opacity:1;fill:none;stroke-linejoin:miter;stroke-dashoffset:0;stroke-linecap:round;stroke-width:5.00;opacity:1;stroke-miterlimit:4;fill-opacity:0" d="M 480,430 480,490 470,500 460,500" /><path style="stroke-dasharray:none;vector-effect:none;stroke:#000000;stroke-opacity:1;fill:none;stroke-linejoin:miter;stroke-dashoffset:0;stroke-linecap:round;stroke-width:5.00;opacity:1;stroke-miterlimit:4;fill-opacity:0" d="M 490,430 460,430" /><path style="stroke-dasharray:none;vector-effect:none;stroke:#000000;stroke-opacity:1;fill:none;stroke-linejoin:miter;stroke-dashoffset:0;stroke-linecap:round;stroke-width:5.00;opacity:1;stroke-miterlimit:4;fill-opacity:0" d="M 500,430 500,500" /><path style="stroke-dasharray:none;vector-effect:none;stroke:#000000;stroke-opacity:1;fill:none;stroke-linejoin:miter;stroke-dashoffset:0;stroke-linecap:round;stroke-width:5.00;opacity:1;stroke-miterlimit:4;fill-opacity:0" d="M 530,430 500,460 530,490 530,500" /><path style="stroke-dasharray:none;vector-effect:none;stroke:#000000;stroke-opacity:1;fill:none;stroke-linejoin:miter;stroke-dashoffset:0;stroke-linecap:round;stroke-width:5.00;opacity:1;stroke-miterlimit:4;fill-opacity:0" d="M 540,430 540,500 570,500" /><path style="stroke-dasharray:none;vector-effect:none;stroke:#000000;stroke-opacity:1;fill:none;stroke-linejoin:miter;stroke-dashoffset:0;stroke-linecap:round;stroke-width:5.00;opacity:1;stroke-miterlimit:4;fill-opacity:0" d="M 580,500 580,430 590,430 590,460 590,430 610,430 610,500" /><path style="stroke-dasharray:none;vector-effect:none;stroke:#000000;stroke-opacity:1;fill:none;stroke-linejoin:miter;stroke-dashoffset:0;stroke-linecap:round;stroke-width:5.00;opacity:1;stroke-miterlimit:4;fill-opacity:0" d="M 620,430 620,500" /><path style="stroke-dasharray:none;vector-effect:none;stroke:#000000;stroke-opacity:1;fill:none;stroke-linejoin:miter;stroke-dashoffset:0;stroke-linecap:round;stroke-width:5.00;opacity:1;stroke-miterlimit:4;fill-opacity:0" d="M 620,430 630,430 630,500 650,500" /><path style="stroke-dasharray:none;vector-effect:none;stroke:#000000;stroke-opacity:1;fill:none;stroke-linejoin:miter;stroke-dashoffset:0;stroke-linecap:round;stroke-width:5.00;opacity:1;stroke-miterlimit:4;fill-opacity:0" d="M 650,430 650,500" /><path style="stroke-dasharray:none;vector-effect:none;stroke:#000000;stroke-opacity:1;fill:none;stroke-linejoin:miter;stroke-dashoffset:0;stroke-linecap:round;stroke-width:5.00;opacity:1;stroke-miterlimit:4;fill-opacity:0" d="M 690,440 680,430 670,430 660,440 660,490 670,500 680,500 690,490 690,440" /><path style="stroke-dasharray:none;vector-effect:none;stroke:#000000;stroke-opacity:1;fill:none;stroke-linejoin:miter;stroke-dashoffset:0;stroke-linecap:round;stroke-width:5.00;opacity:1;stroke-miterlimit:4;fill-opacity:0" d="M 700,430 700,500" /><path style="stroke-dasharray:none;vector-effect:none;stroke:#000000;stroke-opacity:1;fill:none;stroke-linejoin:miter;stroke-dashoffset:0;stroke-linecap:round;stroke-width:5.00;opacity:1;stroke-miterlimit:4;fill-opacity:0" d="M 700,430 720,430 730,440 730,450 720,460 700,460" /><path style="stroke-dasharray:none;vector-effect:none;stroke:#000000;stroke-opacity:1;fill:none;stroke-linejoin:miter;stroke-dashoffset:0;stroke-linecap:round;stroke-width:5.00;opacity:1;stroke-miterlimit:4;fill-opacity:0" d="M 770,440 760,430 750,430 740,440 740,490 750,500 760,500 770,490 770,440" /><path style="stroke-dasharray:none;vector-effect:none;stroke:#000000;stroke-opacity:1;fill:none;stroke-linejoin:miter;stroke-dashoffset:0;stroke-linecap:round;stroke-width:5.00;opacity:1;stroke-miterlimit:4;fill-opacity:0" d="M 750,490 760,500 770,500" /><path style="stroke-dasharray:none;vector-effect:none;stroke:#000000;stroke-opacity:1;fill:none;stroke-linejoin:miter;stroke-dashoffset:0;stroke-linecap:round;stroke-width:5.00;opacity:1;stroke-miterlimit:4;fill-opacity:0" d="M 780,430 780,500" /><path style="stroke-dasharray:none;vector-effect:none;stroke:#000000;stroke-opacity:1;fill:none;stroke-linejoin:miter;stroke-dashoffset:0;stroke-linecap:round;stroke-width:5.00;opacity:1;stroke-miterlimit:4;fill-opacity:0" d="M 780,430 800,430 810,440 810,450 800,460 780,460 800,460 810,470 810,500" /><path style="stroke-dasharray:none;vector-effect:none;stroke:#000000;stroke-opacity:1;fill:none;stroke-linejoin:miter;stroke-dashoffset:0;stroke-linecap:round;stroke-width:5.00;opacity:1;stroke-miterlimit:4;fill-opacity:0" d="M 850,430 830,430 820,440 820,450 830,460 840,460 850,470 850,490 840,500 820,500" /><path style="stroke-dasharray:none;vector-effect:none;stroke:#000000;stroke-opacity:1;fill:none;stroke-linejoin:miter;stroke-dashoffset:0;stroke-linecap:round;stroke-width:5.00;opacity:1;stroke-miterlimit:4;fill-opacity:0" d="M 870,430 870,500" /><path style="stroke-dasharray:none;vector-effect:none;stroke:#000000;stroke-opacity:1;fill:none;stroke-linejoin:miter;stroke-dashoffset:0;stroke-linecap:round;stroke-width:5.00;opacity:1;stroke-miterlimit:4;fill-opacity:0" d="M 890,430 860,430" /><path style="stroke-dasharray:none;vector-effect:none;stroke:#000000;stroke-opacity:1;fill:none;stroke-linejoin:miter;stroke-dashoffset:0;stroke-linecap:round;stroke-width:5.00;opacity:1;stroke-miterlimit:4;fill-opacity:0" d="M 900,430 900,490 910,500 920,500 930,490 930,430" /><path style="stroke-dasharray:none;vector-effect:none;stroke:#000000;stroke-opacity:1;fill:none;stroke-linejoin:miter;stroke-dashoffset:0;stroke-linecap:round;stroke-width:5.00;opacity:1;stroke-miterlimit:4;fill-opacity:0" d="M 940,430 940,490 950,500 970,480 970,430" /><path style="stroke-dasharray:none;vector-effect:none;stroke:#000000;stroke-opacity:1;fill:none;stroke-linejoin:miter;stroke-dashoffset:0;stroke-linecap:round;stroke-width:5.00;opacity:1;stroke-miterlimit:4;fill-opacity:0" d="M 980,430 980,500 990,500 990,460 990,500 1000,500 1010,490 1010,430" /><path style="stroke-dasharray:none;vector-effect:none;stroke:#000000;stroke-opacity:1;fill:none;stroke-linejoin:miter;stroke-dashoffset:0;stroke-linecap:round;stroke-width:5.00;opacity:1;stroke-miterlimit:4;fill-opacity:0" d="M 1020,430 1020,450 1030,460 1040,460 1050,470 1050,500" /><path style="stroke-dasharray:none;vector-effect:none;stroke:#000000;stroke-opacity:1;fill:none;stroke-linejoin:miter;stroke-dashoffset:0;stroke-linecap:round;stroke-width:5.00;opacity:1;stroke-miterlimit:4;fill-opacity:0" d="M 1050,430 1050,450 1040,460 1030,460 1020,470 1020,500" /><path style="stroke-dasharray:none;vector-effect:none;stroke:#000000;stroke-opacity:1;fill:none;stroke-linejoin:miter;stroke-dashoffset:0;stroke-linecap:round;stroke-width:5.00;opacity:1;stroke-miterlimit:4;fill-opacity:0" d="M 1060,430 1060,440 1080,460 1090,450 1090,430 1090,450 1080,460 1080,500" /><path style="stroke-dasharray:none;vector-effect:none;stroke:#000000;stroke-opacity:1;fill:none;stroke-linejoin:miter;stroke-dashoffset:0;stroke-linecap:round;stroke-width:5.00;opacity:1;stroke-miterlimit:4;fill-opacity:0" d="M 1100,430 1130,430 1130,440 1120,450 1120,460 1100,480 1100,500 1130,500" /><path style="stroke-dasharray:none;vector-effect:none;stroke:#000000;stroke-opacity:1;fill:none;stroke-linejoin:miter;stroke-dashoffset:0;stroke-linecap:round;stroke-width:5.00;opacity:1;stroke-miterlimit:4;fill-opacity:0" d="M 130,590 120,580 110,580 100,590 100,610 110,620 120,620 130,610 130,590" /><path style="stroke-dasharray:none;vector-effect:none;stroke:#000000;stroke-opacity:1;fill:none;stroke-linejoin:miter;stroke-dashoffset:0;stroke-linecap:round;stroke-width:5.00;opacity:1;stroke-miterlimit:4;fill-opacity:0" d="M 130,580 130,620" /><path style="stroke-dasharray:none;vector-effect:none;stroke:#000000;stroke-opacity:1;fill:none;stroke-linejoin:miter;stroke-dashoffset:0;stroke-linecap:round;stroke-width:5.00;opacity:1;stroke-miterlimit:4;fill-opacity:0" d="M 140,620" /><path style="stroke-dasharray:none;vector-effect:none;stroke:#000000;stroke-opacity:1;fill:none;stroke-linejoin:miter;stroke-dashoffset:0;stroke-linecap:round;stroke-width:5.00;opacity:1;stroke-miterlimit:4;fill-opacity:0" d="M 140,550 140,620" /><path style="stroke-dasharray:none;vector-effect:none;stroke:#000000;stroke-opacity:1;fill:none;stroke-linejoin:miter;stroke-dashoffset:0;stroke-linecap:round;stroke-width:5.00;opacity:1;stroke-miterlimit:4;fill-opacity:0" d="M 140,610 150,620 160,620 170,610 170,590 160,580 150,580 140,590" /><path style="stroke-dasharray:none;vector-effect:none;stroke:#000000;stroke-opacity:1;fill:none;stroke-linejoin:miter;stroke-dashoffset:0;stroke-linecap:round;stroke-width:5.00;opacity:1;stroke-miterlimit:4;fill-opacity:0" d="M 210,590 200,580 190,580 180,590 180,610 190,620 200,620 210,610" /><path style="stroke-dasharray:none;vector-effect:none;stroke:#000000;stroke-opacity:1;fill:none;stroke-linejoin:miter;stroke-dashoffset:0;stroke-linecap:round;stroke-width:5.00;opacity:1;stroke-miterlimit:4;fill-opacity:0" d="M 250,590 240,580 230,580 220,590 220,610 230,620 240,620 250,610" /><path style="stroke-dasharray:none;vector-effect:none;stroke:#000000;stroke-opacity:1;fill:none;stroke-linejoin:miter;stroke-dashoffset:0;stroke-linecap:round;stroke-width:5.00;opacity:1;stroke-miterlimit:4;fill-opacity:0" d="M 250,550 250,620" /><path style="stroke-dasharray:none;vector-effect:none;stroke:#000000;stroke-opacity:1;fill:none;stroke-linejoin:miter;stroke-dashoffset:0;stroke-linecap:round;stroke-width:5.00;opacity:1;stroke-miterlimit:4;fill-opacity:0" d="M 260,600 290,600 290,590 280,580 270,580 260,590 260,610 270,620 280,620 290,610" /><path style="stroke-dasharray:none;vector-effect:none;stroke:#000000;stroke-opacity:1;fill:none;stroke-linejoin:miter;stroke-dashoffset:0;stroke-linecap:round;stroke-width:5.00;opacity:1;stroke-miterlimit:4;fill-opacity:0" d="M 330,550 320,550 310,560 310,620" /><path style="stroke-dasharray:none;vector-effect:none;stroke:#000000;stroke-opacity:1;fill:none;stroke-linejoin:miter;stroke-dashoffset:0;stroke-linecap:round;stroke-width:5.00;opacity:1;stroke-miterlimit:4;fill-opacity:0" d="M 330,580 300,580" /><path style="stroke-dasharray:none;vector-effect:none;stroke:#000000;stroke-opacity:1;fill:none;stroke-linejoin:miter;stroke-dashoffset:0;stroke-linecap:round;stroke-width:5.00;opacity:1;stroke-miterlimit:4;fill-opacity:0" d="M 370,590 360,580 350,580 340,590 340,610 350,620 360,620 370,610" /><path style="stroke-dasharray:none;vector-effect:none;stroke:#000000;stroke-opacity:1;fill:none;stroke-linejoin:miter;stroke-dashoffset:0;stroke-linecap:round;stroke-width:5.00;opacity:1;stroke-miterlimit:4;fill-opacity:0" d="M 370,580 370,640 360,650 350,650 340,640" /><path style="stroke-dasharray:none;vector-effect:none;stroke:#000000;stroke-opacity:1;fill:none;stroke-linejoin:miter;stroke-dashoffset:0;stroke-linecap:round;stroke-width:5.00;opacity:1;stroke-miterlimit:4;fill-opacity:0" d="M 380,550 380,620" /><path style="stroke-dasharray:none;vector-effect:none;stroke:#000000;stroke-opacity:1;fill:none;stroke-linejoin:miter;stroke-dashoffset:0;stroke-linecap:round;stroke-width:5.00;opacity:1;stroke-miterlimit:4;fill-opacity:0" d="M 380,590 390,580 400,580 410,590 410,620" /><path style="stroke-dasharray:none;vector-effect:none;stroke:#000000;stroke-opacity:1;fill:none;stroke-linejoin:miter;stroke-dashoffset:0;stroke-linecap:round;stroke-width:5.00;opacity:1;stroke-miterlimit:4;fill-opacity:0" d="M 430,580 440,580 440,620" /><path style="stroke-dasharray:none;vector-effect:none;stroke:#000000;stroke-opacity:1;fill:none;stroke-linejoin:miter;stroke-dashoffset:0;stroke-linecap:round;stroke-width:5.00;opacity:1;stroke-miterlimit:4;fill-opacity:0" d="M 440,570 430,570" /><path style="stroke-dasharray:none;vector-effect:none;stroke:#000000;stroke-opacity:1;fill:none;stroke-linejoin:miter;stroke-dashoffset:0;stroke-linecap:round;stroke-width:5.00;opacity:1;stroke-miterlimit:4;fill-opacity:0" d="M 470,580 480,580 480,640 470,650 460,650" /><path style="stroke-dasharray:none;vector-effect:none;stroke:#000000;stroke-opacity:1;fill:none;stroke-linejoin:miter;stroke-dashoffset:0;stroke-linecap:round;stroke-width:5.00;opacity:1;stroke-miterlimit:4;fill-opacity:0" d="M 480,570 470,570" /><path style="stroke-dasharray:none;vector-effect:none;stroke:#000000;stroke-opacity:1;fill:none;stroke-linejoin:miter;stroke-dashoffset:0;stroke-linecap:round;stroke-width:5.00;opacity:1;stroke-miterlimit:4;fill-opacity:0" d="M 500,550 500,620" /><path style="stroke-dasharray:none;vector-effect:none;stroke:#000000;stroke-opacity:1;fill:none;stroke-linejoin:miter;stroke-dashoffset:0;stroke-linecap:round;stroke-width:5.00;opacity:1;stroke-miterlimit:4;fill-opacity:0" d="M 530,580 500,610" /><path style="stroke-dasharray:none;vector-effect:none;stroke:#000000;stroke-opacity:1;fill:none;stroke-linejoin:miter;stroke-dashoffset:0;stroke-linecap:round;stroke-width:5.00;opacity:1;stroke-miterlimit:4;fill-opacity:0" d="M 510,600 530,620" /><path style="stroke-dasharray:none;vector-effect:none;stroke:#000000;stroke-opacity:1;fill:none;stroke-linejoin:miter;stroke-dashoffset:0;stroke-linecap:round;stroke-width:5.00;opacity:1;stroke-miterlimit:4;fill-opacity:0" d="M 550,550 550,620 560,620" /><path style="stroke-dasharray:none;vector-effect:none;stroke:#000000;stroke-opacity:1;fill:none;stroke-linejoin:miter;stroke-dashoffset:0;stroke-linecap:round;stroke-width:5.00;opacity:1;stroke-miterlimit:4;fill-opacity:0" d="M 580,580 580,620" /><path style="stroke-dasharray:none;vector-effect:none;stroke:#000000;stroke-opacity:1;fill:none;stroke-linejoin:miter;stroke-dashoffset:0;stroke-linecap:round;stroke-width:5.00;opacity:1;stroke-miterlimit:4;fill-opacity:0" d="M 580,580 590,580 590,620" /><path style="stroke-dasharray:none;vector-effect:none;stroke:#000000;stroke-opacity:1;fill:none;stroke-linejoin:miter;stroke-dashoffset:0;stroke-linecap:round;stroke-width:5.00;opacity:1;stroke-miterlimit:4;fill-opacity:0" d="M 590,580 600,580 610,590 610,620" /><path style="stroke-dasharray:none;vector-effect:none;stroke:#000000;stroke-opacity:1;fill:none;stroke-linejoin:miter;stroke-dashoffset:0;stroke-linecap:round;stroke-width:5.00;opacity:1;stroke-miterlimit:4;fill-opacity:0" d="M 620,580 620,620" /><path style="stroke-dasharray:none;vector-effect:none;stroke:#000000;stroke-opacity:1;fill:none;stroke-linejoin:miter;stroke-dashoffset:0;stroke-linecap:round;stroke-width:5.00;opacity:1;stroke-miterlimit:4;fill-opacity:0" d="M 620,590 630,580 640,580 650,590 650,620" /><path style="stroke-dasharray:none;vector-effect:none;stroke:#000000;stroke-opacity:1;fill:none;stroke-linejoin:miter;stroke-dashoffset:0;stroke-linecap:round;stroke-width:5.00;opacity:1;stroke-miterlimit:4;fill-opacity:0" d="M 690,590 680,580 670,580 660,590 660,610 670,620 680,620 690,610 690,590" /><path style="stroke-dasharray:none;vector-effect:none;stroke:#000000;stroke-opacity:1;fill:none;stroke-linejoin:miter;stroke-dashoffset:0;stroke-linecap:round;stroke-width:5.00;opacity:1;stroke-miterlimit:4;fill-opacity:0" d="M 700,580 700,650" /><path style="stroke-dasharray:none;vector-effect:none;stroke:#000000;stroke-opacity:1;fill:none;stroke-linejoin:miter;stroke-dashoffset:0;stroke-linecap:round;stroke-width:5.00;opacity:1;stroke-miterlimit:4;fill-opacity:0" d="M 700,590 700,610 710,620 720,620 730,610 730,590 720,580 710,580 700,590" /><path style="stroke-dasharray:none;vector-effect:none;stroke:#000000;stroke-opacity:1;fill:none;stroke-linejoin:miter;stroke-dashoffset:0;stroke-linecap:round;stroke-width:5.00;opacity:1;stroke-miterlimit:4;fill-opacity:0" d="M 770,590 760,580 750,580 740,590 740,610 750,620 760,620 770,610" /><path style="stroke-dasharray:none;vector-effect:none;stroke:#000000;stroke-opacity:1;fill:none;stroke-linejoin:miter;stroke-dashoffset:0;stroke-linecap:round;stroke-width:5.00;opacity:1;stroke-miterlimit:4;fill-opacity:0" d="M 770,580 770,650" /><path style="stroke-dasharray:none;vector-effect:none;stroke:#000000;stroke-opacity:1;fill:none;stroke-linejoin:miter;stroke-dashoffset:0;stroke-linecap:round;stroke-width:5.00;opacity:1;stroke-miterlimit:4;fill-opacity:0" d="M 780,580 780,620" /><path style="stroke-dasharray:none;vector-effect:none;stroke:#000000;stroke-opacity:1;fill:none;stroke-linejoin:miter;stroke-dashoffset:0;stroke-linecap:round;stroke-width:5.00;opacity:1;stroke-miterlimit:4;fill-opacity:0" d="M 780,590 790,580 800,580 810,590" /><path style="stroke-dasharray:none;vector-effect:none;stroke:#000000;stroke-opacity:1;fill:none;stroke-linejoin:miter;stroke-dashoffset:0;stroke-linecap:round;stroke-width:5.00;opacity:1;stroke-miterlimit:4;fill-opacity:0" d="M 850,590 840,580 830,580 820,590 830,600 840,600 850,610 840,620 830,620 820,610" /><path style="stroke-dasharray:none;vector-effect:none;stroke:#000000;stroke-opacity:1;fill:none;stroke-linejoin:miter;stroke-dashoffset:0;stroke-linecap:round;stroke-width:5.00;opacity:1;stroke-miterlimit:4;fill-opacity:0" d="M 870,570 870,610 880,620 890,610" /><path style="stroke-dasharray:none;vector-effect:none;stroke:#000000;stroke-opacity:1;fill:none;stroke-linejoin:miter;stroke-dashoffset:0;stroke-linecap:round;stroke-width:5.00;opacity:1;stroke-miterlimit:4;fill-opacity:0" d="M 860,580 890,580" /><path style="stroke-dasharray:none;vector-effect:none;stroke:#000000;stroke-opacity:1;fill:none;stroke-linejoin:miter;stroke-dashoffset:0;stroke-linecap:round;stroke-width:5.00;opacity:1;stroke-miterlimit:4;fill-opacity:0" d="M 900,580 900,610 910,620 920,620 930,610" /><path style="stroke-dasharray:none;vector-effect:none;stroke:#000000;stroke-opacity:1;fill:none;stroke-linejoin:miter;stroke-dashoffset:0;stroke-linecap:round;stroke-width:5.00;opacity:1;stroke-miterlimit:4;fill-opacity:0" d="M 930,580 930,620" /><path style="stroke-dasharray:none;vector-effect:none;stroke:#000000;stroke-opacity:1;fill:none;stroke-linejoin:miter;stroke-dashoffset:0;stroke-linecap:round;stroke-width:5.00;opacity:1;stroke-miterlimit:4;fill-opacity:0" d="M 940,580 940,610 950,620 970,600 970,580" /><path style="stroke-dasharray:none;vector-effect:none;stroke:#000000;stroke-opacity:1;fill:none;stroke-linejoin:miter;stroke-dashoffset:0;stroke-linecap:round;stroke-width:5.00;opacity:1;stroke-miterlimit:4;fill-opacity:0" d="M 980,580 980,620 990,620 990,580 990,620 1000,620 1010,610 1010,580" /><path style="stroke-dasharray:none;vector-effect:none;stroke:#000000;stroke-opacity:1;fill:none;stroke-linejoin:miter;stroke-dashoffset:0;stroke-linecap:round;stroke-width:5.00;opacity:1;stroke-miterlimit:4;fill-opacity:0" d="M 1020,580 1020,590 1030,600 1040,600 1050,610 1050,620" /><path style="stroke-dasharray:none;vector-effect:none;stroke:#000000;stroke-opacity:1;fill:none;stroke-linejoin:miter;stroke-dashoffset:0;stroke-linecap:round;stroke-width:5.00;opacity:1;stroke-miterlimit:4;fill-opacity:0" d="M 1050,580 1050,590 1040,600 1030,600 1020,610 1020,620" /><path style="stroke-dasharray:none;vector-effect:none;stroke:#000000;stroke-opacity:1;fill:none;stroke-linejoin:miter;stroke-dashoffset:0;stroke-linecap:round;stroke-width:5.00;opacity:1;stroke-miterlimit:4;fill-opacity:0" d="M 1060,580 1060,610 1070,620 1080,620 1090,610" /><path style="stroke-dasharray:none;vector-effect:none;stroke:#000000;stroke-opacity:1;fill:none;stroke-linejoin:miter;stroke-dashoffset:0;stroke-linecap:round;stroke-width:5.00;opacity:1;stroke-miterlimit:4;fill-opacity:0" d="M 1090,580 1090,640 1080,650 1070,650 1060,640" /><path style="stroke-dasharray:none;vector-effect:none;stroke:#000000;stroke-opacity:1;fill:none;stroke-linejoin:miter;stroke-dashoffset:0;stroke-linecap:round;stroke-width:5.00;opacity:1;stroke-miterlimit:4;fill-opacity:0" d="M 1100,580 1130,580 1100,610 1100,620 1130,620" /> </g>
</svg>
